<svg width="32" height="32" viewBox="0 0 32 32" fill="none" xmlns="http://www.w3.org/2000/svg">
<path d="M16.0779 2.89507C16.4853 2.59699 17.0383 2.59699 17.4457 2.89507L18.8889 3.95168C19.1645 4.15342 19.515 4.22317 19.8469 4.14225L21.5846 3.71845C22.0745 3.59888 22.5856 3.81064 22.848 4.24183L23.7768 5.77038C23.9542 6.06227 24.2517 6.26089 24.5892 6.31313L26.3566 6.58663C26.8551 6.66378 27.2466 7.05505 27.3235 7.55373L27.597 9.32139C27.6492 9.65895 27.8479 9.95642 28.1397 10.1339L29.6681 11.0628C30.0991 11.3252 30.311 11.8364 30.1914 12.3264L29.7678 14.0643C29.6867 14.3963 29.7566 14.7468 29.9582 15.0225L31.0146 16.4659C31.3127 16.8733 31.3127 17.4264 31.0146 17.8338L29.9582 19.2772C29.7566 19.5529 29.6867 19.9034 29.7678 20.2353L30.1914 21.973C30.311 22.4632 30.0991 22.9744 29.6681 23.2368L28.1397 24.1658C27.8479 24.3433 27.6492 24.6404 27.597 24.9783L27.3235 26.746C27.2466 27.2445 26.8551 27.6357 26.3566 27.713L24.5892 27.9866C24.2517 28.0387 23.9542 28.2374 23.7768 28.5293L22.848 30.0579C22.5856 30.4889 22.0745 30.7009 21.5846 30.5812L19.8469 30.1576C19.515 30.0765 19.1645 30.1463 18.8889 30.348L17.4457 31.4046C17.0383 31.7027 16.4853 31.7027 16.0779 31.4046L14.6347 30.348C14.3591 30.1463 14.0086 30.0765 13.6767 30.1576L11.9393 30.5812C11.4491 30.7009 10.9379 30.4889 10.6759 30.0579L9.74677 28.5293C9.56932 28.2374 9.27189 28.0387 8.93437 27.9866L7.16692 27.713C6.66846 27.6357 6.2773 27.2445 6.20007 26.746L5.92652 24.9783C5.87435 24.6407 5.67567 24.3433 5.38384 24.1658L3.85544 23.2368C3.42448 22.9744 3.21254 22.4632 3.33222 21.973L3.75581 20.2353C3.83687 19.9034 3.76701 19.5529 3.56539 19.2772L2.50891 17.8338C2.2109 17.4264 2.2109 16.8733 2.50891 16.4659L3.56539 15.0225C3.76701 14.7468 3.83687 14.3963 3.75581 14.0643L3.33222 12.3264C3.21254 11.8364 3.42448 11.3252 3.85544 11.0628L5.38384 10.1339C5.67567 9.95642 5.87435 9.65895 5.92652 9.32139L6.20007 7.55373C6.2773 7.05505 6.66846 6.66378 7.16692 6.58663L8.93437 6.31313C9.27189 6.26089 9.56932 6.06227 9.74677 5.77038L10.6759 4.24183C10.9379 3.81064 11.4491 3.59888 11.9393 3.71845L13.6767 4.14225C14.0086 4.22317 14.3591 4.15342 14.6347 3.95168L16.0779 2.89507Z" fill="#222222"/>
<path d="M14.8074 1.23797C15.2148 0.939883 15.7678 0.939883 16.1751 1.23797L17.6183 2.29458C17.894 2.49632 18.2444 2.56607 18.5764 2.48514L20.314 2.06135C20.804 1.94177 21.3151 2.15354 21.5774 2.58473L22.5063 4.11327C22.6837 4.40517 22.9812 4.60378 23.3187 4.65602L25.0861 4.92952C25.5846 5.0067 25.976 5.39795 26.053 5.89662L26.3265 7.66441C26.3787 8.00197 26.5774 8.29925 26.8692 8.47667L28.3976 9.40577C28.8286 9.66786 29.0405 10.1791 28.9208 10.6693L28.4972 12.4073C28.4162 12.7392 28.486 13.0898 28.6877 13.3654L29.7441 14.8088C30.0422 15.2159 30.0422 15.7693 29.7441 16.1764L28.6877 17.6201C28.486 17.8955 28.4162 18.2463 28.4972 18.578L28.9208 20.3159C29.0405 20.8062 28.8286 21.3174 28.3976 21.5795L26.8692 22.5087C26.5774 22.6862 26.3787 22.9834 26.3265 23.3209L26.053 25.0889C25.976 25.5874 25.5846 25.9787 25.0861 26.0559L23.3187 26.3295C22.9812 26.3817 22.6837 26.5804 22.5063 26.8722L21.5774 28.4008C21.3151 28.8318 20.804 29.0438 20.314 28.9241L18.5764 28.5002C18.2444 28.4194 17.894 28.4893 17.6183 28.6909L16.1751 29.7475C15.7678 30.0456 15.2148 30.0456 14.8074 29.7475L13.3642 28.6909C13.0886 28.4893 12.7381 28.4194 12.4062 28.5002L10.6688 28.9241C10.1786 29.0438 9.66743 28.8318 9.40509 28.4008L8.47626 26.8722C8.29881 26.5804 8.00138 26.3817 7.66387 26.3295L5.89641 26.0559C5.39795 25.9787 5.00648 25.5874 4.92954 25.0889L4.656 23.3209C4.60383 22.9834 4.40514 22.6862 4.11332 22.5087L2.58492 21.5795C2.15396 21.3174 1.94202 20.8062 2.0617 20.3159L2.48529 18.578C2.56635 18.2463 2.49649 17.8955 2.29487 17.6201L1.2384 16.1764C0.940389 15.7693 0.940389 15.2159 1.2384 14.8088L2.29487 13.3654C2.49649 13.0898 2.56635 12.7392 2.48529 12.4073L2.0617 10.6693C1.94202 10.1791 2.15396 9.66786 2.58492 9.40577L4.11332 8.47667C4.40514 8.29925 4.60383 8.00197 4.656 7.66441L4.92954 5.89662C5.00648 5.39795 5.39795 5.0067 5.89641 4.92952L7.66387 4.65602C8.00138 4.60378 8.29881 4.40517 8.47626 4.11327L9.40509 2.58473C9.66743 2.15354 10.1786 1.94177 10.6688 2.06135L12.4062 2.48514C12.7381 2.56607 13.0886 2.49632 13.3642 2.29458L14.8074 1.23797Z" fill="#CACACA"/>
<path d="M17.6984 2.18463L16.2549 1.12803C15.8 0.794889 15.1816 0.794889 14.7267 1.12803L13.2833 2.18463C13.0404 2.36264 12.7308 2.4242 12.4381 2.3528L10.7004 1.92897C10.1525 1.79536 9.5812 2.03201 9.28849 2.51394L8.35936 4.04248C8.20284 4.30003 7.94049 4.4753 7.64277 4.52138L5.87531 4.7949C5.31789 4.88114 4.88075 5.31843 4.79438 5.87577L4.52082 7.64356C4.47484 7.94141 4.29975 8.2037 4.04212 8.36025L2.51372 9.28958C2.03206 9.58233 1.79536 10.1537 1.92889 10.7017L2.35277 12.4397C2.42411 12.7324 2.3625 13.0417 2.18446 13.2849L1.12799 14.7283C0.7949 15.1835 0.7949 15.802 1.12799 16.2569L2.18446 17.7003C2.3625 17.9435 2.42411 18.2531 2.35277 18.5458L1.92889 20.2837C1.79536 20.8315 2.03206 21.4028 2.51372 21.6959L4.04212 22.6251C4.29975 22.7817 4.47484 23.0441 4.52082 23.3418L4.79438 25.1095C4.88075 25.667 5.31789 26.1042 5.87531 26.1906L7.64277 26.4639C7.94049 26.5102 8.20284 26.6853 8.35936 26.9429L9.28849 28.4715C9.5812 28.9533 10.1525 29.19 10.7004 29.0565L12.4381 28.6325C12.7308 28.5612 13.0404 28.6228 13.2835 28.8009L14.7267 29.8575C15.1816 30.1906 15.8 30.1906 16.2549 29.8575L17.6984 28.8009C17.9412 28.6228 18.2508 28.5612 18.5435 28.6325L20.2812 29.0565C20.8291 29.19 21.4004 28.9533 21.6931 28.4715L22.6222 26.9429C22.7788 26.6853 23.0411 26.5102 23.3388 26.4639L25.1066 26.1906C25.6637 26.1042 26.1009 25.667 26.1872 25.1095L26.4608 23.3418C26.5068 23.0441 26.6819 22.7817 26.9395 22.6251L28.4679 21.6959C28.9495 21.4028 29.1862 20.8315 29.0527 20.2837L28.6288 18.5458C28.5575 18.2531 28.6191 17.9435 28.7971 17.7003L29.8536 16.2569C30.1867 15.802 30.1867 15.1835 29.8536 14.7283L28.7971 13.2849C28.6191 13.0417 28.5575 12.7324 28.6288 12.4397L29.0527 10.7017C29.1862 10.1537 28.9495 9.58233 28.4679 9.28958L26.9395 8.36025C26.6819 8.2037 26.5068 7.94141 26.4608 7.64356L26.1872 5.87577C26.1009 5.31843 25.6637 4.88114 25.1066 4.7949L23.3388 4.52138C23.0411 4.4753 22.7788 4.30003 22.6222 4.04248L21.6931 2.51394C21.4004 2.03201 20.8291 1.79536 20.2812 1.92897L18.5435 2.3528C18.2508 2.4242 17.9412 2.36264 17.6984 2.18463Z" fill="white" stroke="#222222" stroke-width="1.7563"/>
<path fill-rule="evenodd" clip-rule="evenodd" d="M4.72202 7.23856L4.656 7.66442C4.60383 8.00198 4.40514 8.29924 4.11332 8.47669L2.58492 9.40573C2.15396 9.66811 1.94202 10.1793 2.0617 10.6693L2.14689 11.0192L15.6935 1.03217C15.3896 0.978309 15.0686 1.04691 14.8074 1.23795L13.3642 2.29456C13.0889 2.49633 12.7381 2.56608 12.4062 2.48516L11.4767 2.25844L4.72202 7.23856ZM11.0679 2.15871L10.6688 2.06133C10.1786 1.94179 9.66744 2.15352 9.40539 2.58471L8.52431 4.03398L11.0679 2.15871ZM7.68538 4.6525C7.67831 4.65374 7.67123 4.65492 7.66415 4.65601L5.89641 4.92953C5.39795 5.00669 5.00678 5.39793 4.92954 5.89663L4.79189 6.78573L7.68538 4.6525ZM16.0596 1.16348L2.23001 11.3595L2.48559 12.4072C2.54042 12.6333 2.52568 12.868 2.44697 13.0817L17.3475 2.09639L16.1751 1.23795C16.1377 1.21062 16.0991 1.1858 16.0596 1.16348ZM17.6207 2.29627L1.92964 13.8645L1.2384 14.8088C0.940389 15.2162 0.940389 15.7693 1.2384 16.1767L1.27643 16.2286L20.536 2.02946C20.462 2.03282 20.3877 2.04332 20.3141 2.06133L18.5764 2.48516C18.2453 2.56585 17.8957 2.49671 17.6207 2.29627ZM20.9858 2.09886L1.46714 16.4892L2.29487 17.6201C2.31756 17.6507 2.33849 17.6826 2.35765 17.715L21.9804 3.2481L21.5774 2.58471C21.4374 2.35458 21.2267 2.18698 20.9858 2.09886ZM22.149 3.52514L2.48382 18.0231C2.52892 18.2032 2.5304 18.3937 2.48559 18.5782L2.09117 20.1953L23.2013 4.63166C22.9128 4.55586 22.6631 4.37086 22.5063 4.11329L22.149 3.52514ZM23.6441 4.70639L2.02986 20.6416C2.04666 21.0205 2.24917 21.3754 2.58492 21.5797L2.98286 21.8215L25.6014 5.14584C25.4534 5.03516 25.2777 4.95916 25.0861 4.92953L23.6441 4.70639ZM25.8331 5.37626L3.28118 22.0028L4.11332 22.5087C4.2949 22.6192 4.44023 22.7758 4.53691 22.9594L26.2198 6.97376L26.053 5.89663C26.0232 5.70291 25.9457 5.52544 25.8331 5.37626ZM26.2755 7.33388L4.64863 23.2784C4.65128 23.2926 4.65394 23.3067 4.656 23.3212L4.91068 24.9674L27.0935 8.61312L26.8692 8.47669C26.5774 8.29924 26.3787 8.00198 26.3265 7.66442L26.2755 7.33388ZM27.3918 8.79444L4.98732 25.3123C5.13058 25.7012 5.47518 25.9907 5.89641 26.0558L6.42169 26.1372L28.7201 9.69759C28.634 9.58321 28.5252 9.48356 28.3976 9.40573L27.3918 8.79444ZM28.8778 9.98267L6.87151 26.2068L7.66415 26.3294C8.00167 26.3816 8.29881 26.5803 8.47626 26.8722L8.49041 26.8958L28.5748 12.0885L28.9208 10.6693C28.978 10.4355 28.9594 10.1967 28.8778 9.98267ZM28.4698 12.567L8.65873 27.1726L9.40539 28.4008C9.41983 28.4247 9.43515 28.4482 9.45136 28.4709L29.1266 13.9653L28.6877 13.3654C28.5182 13.1336 28.4418 12.8491 28.4698 12.567ZM29.3173 14.2259L9.67539 28.7068C9.94982 28.9241 10.3148 29.0105 10.6688 28.9241L12.4062 28.5004C12.4516 28.4892 12.497 28.481 12.5426 28.4757L29.9587 15.6354C29.9944 15.3494 29.9228 15.0529 29.7441 14.8088L29.3173 14.2259ZM29.715 16.2165L13.0264 28.5202C13.1463 28.5576 13.2607 28.6148 13.3642 28.6909L14.3596 29.4197L28.5836 18.9329L28.4972 18.5782C28.4162 18.2463 28.486 17.8957 28.6877 17.6201L29.715 16.2165ZM28.6664 19.2731L14.6326 29.6195L14.8074 29.7475C15.2148 30.0455 15.7678 30.0455 16.1751 29.7475L17.6183 28.6909C17.894 28.4892 18.2444 28.4194 18.5764 28.5004L18.6725 28.5237L28.8796 20.9986C28.9597 20.7855 28.9774 20.5485 28.9208 20.3161L28.6664 19.2731ZM26.3345 23.2761L19.0813 28.6234L20.3141 28.9241C20.804 29.0438 21.3151 28.8318 21.5774 28.4008L22.5063 26.8722C22.6837 26.5803 22.9812 26.3816 23.3187 26.3294L25.0861 26.0558C25.0997 26.0538 25.1133 26.0514 25.1268 26.0488L25.9309 25.4562C25.9908 25.3436 26.0326 25.2201 26.053 25.0889L26.3265 23.3212C26.3289 23.3058 26.3315 23.2911 26.3345 23.2761Z" fill="#CACACA"/>
<path fill-rule="evenodd" clip-rule="evenodd" d="M23.0386 11.8102L13.4767 21.3736L8.38599 16.2822L10.1514 14.5166L13.4767 17.842L21.2732 10.0446L23.0386 11.8102Z" fill="#222222" stroke="#222222" stroke-width="0.878151" stroke-linecap="square"/>
<path fill-rule="evenodd" clip-rule="evenodd" d="M22.5854 11.3789L13.0236 20.9423L7.93286 15.8509L9.69826 14.0853L13.0236 17.4108L20.82 9.61328L22.5854 11.3789Z" fill="#585858" stroke="#222222" stroke-width="0.878151" stroke-linecap="square"/>
</svg>
