<svg width="31" height="31" viewBox="0 0 31 31" fill="none" xmlns="http://www.w3.org/2000/svg">
<path d="M15.131 1.88911C15.5402 1.5897 16.0957 1.5897 16.5049 1.88911L17.9546 2.95042C18.2315 3.15306 18.5835 3.22312 18.9169 3.14183L20.6625 2.71615C21.1546 2.59605 21.668 2.80875 21.9316 3.24186L22.8646 4.77721C23.0428 5.0704 23.3416 5.2699 23.6806 5.32237L25.456 5.59708C25.9568 5.67458 26.35 6.0676 26.4273 6.56849L26.702 8.34402C26.7544 8.68308 26.954 8.98187 27.2472 9.16013L28.7824 10.0932C29.2153 10.3568 29.4282 10.8702 29.308 11.3624L28.8825 13.1081C28.8011 13.4415 28.8713 13.7936 29.0738 14.0705L30.135 15.5203C30.4344 15.9295 30.4344 16.4851 30.135 16.8943L29.0738 18.3441C28.8713 18.621 28.8011 18.9731 28.8825 19.3065L29.308 21.0519C29.4282 21.5443 29.2153 22.0578 28.7824 22.3214L27.2472 23.2544C26.954 23.4327 26.7544 23.7312 26.702 24.0706L26.4273 25.8461C26.35 26.3469 25.9568 26.7398 25.456 26.8174L23.6806 27.0922C23.3416 27.1446 23.0428 27.3442 22.8646 27.6374L21.9316 29.1728C21.668 29.6057 21.1546 29.8186 20.6625 29.6984L18.9169 29.2729C18.5835 29.1914 18.2315 29.2616 17.9546 29.4642L16.5049 30.5255C16.0957 30.8249 15.5402 30.8249 15.131 30.5255L13.6813 29.4642C13.4044 29.2616 13.0524 29.1914 12.719 29.2729L10.9737 29.6984C10.4813 29.8186 9.96789 29.6057 9.70436 29.1728L8.77135 27.6374C8.5931 27.3442 8.29433 27.1446 7.95529 27.0922L6.17987 26.8174C5.67917 26.7398 5.28594 26.3469 5.20866 25.8461L4.93388 24.0706C4.88147 23.7315 4.6819 23.4327 4.38876 23.2544L2.85347 22.3214C2.42057 22.0578 2.20768 21.5443 2.32789 21.0519L2.75339 19.3065C2.83482 18.9731 2.76465 18.621 2.56211 18.3441L1.50089 16.8943C1.20153 16.4851 1.20153 15.9295 1.50089 15.5203L2.56211 14.0705C2.76465 13.7936 2.83482 13.4415 2.75339 13.1081L2.32789 11.3624C2.20768 10.8702 2.42057 10.3568 2.85347 10.0932L4.38876 9.16013C4.6819 8.98187 4.88147 8.68308 4.93388 8.34402L5.20866 6.56849C5.28594 6.0676 5.67917 5.67458 6.17987 5.59708L7.95529 5.32237C8.29433 5.2699 8.5931 5.0704 8.77135 4.77721L9.70436 3.24186C9.96789 2.80875 10.4813 2.59605 10.9734 2.71615L12.719 3.14183C13.0524 3.22312 13.4044 3.15306 13.6813 2.95042L15.131 1.88911Z" fill="#222222"/>
<path d="M13.8546 0.224558C14.2638 -0.0748527 14.8193 -0.0748527 15.2286 0.224558L16.6783 1.28587C16.9551 1.4885 17.3072 1.55857 17.6406 1.47728L19.3858 1.0516C19.8782 0.931495 20.3917 1.1442 20.6552 1.57731L21.5882 3.11265C21.7665 3.40585 22.0652 3.60535 22.4043 3.65782L24.1797 3.93253C24.6804 4.01006 25.0736 4.40304 25.1509 4.90394L25.4257 6.67958C25.4781 7.01865 25.6777 7.31726 25.9708 7.49546L27.5061 8.4287C27.939 8.69195 28.1519 9.20543 28.0317 9.69789L27.6062 11.4435C27.5247 11.777 27.5949 12.1291 27.7974 12.4059L28.8587 13.8558C29.158 14.2647 29.158 14.8205 28.8587 15.2295L27.7974 16.6796C27.5949 16.9562 27.5247 17.3086 27.6062 17.6417L28.0317 19.3874C28.1519 19.8798 27.939 20.3933 27.5061 20.6565L25.9708 21.5899C25.6777 21.7682 25.4781 22.0667 25.4257 22.4057L25.1509 24.1816C25.0736 24.6823 24.6804 25.0753 24.1797 25.1529L22.4043 25.4277C22.0652 25.4801 21.7665 25.6797 21.5882 25.9729L20.6552 27.5083C20.3917 27.9412 19.8782 28.1541 19.3858 28.0339L17.6406 27.6081C17.3072 27.5269 16.9551 27.5971 16.6783 27.7996L15.2286 28.8609C14.8193 29.1603 14.2638 29.1603 13.8546 28.8609L12.4049 27.7996C12.1281 27.5971 11.776 27.5269 11.4426 27.6081L9.69709 28.0339C9.20497 28.1541 8.69153 27.9412 8.428 27.5083L7.49498 25.9729C7.31673 25.6797 7.01797 25.4801 6.67893 25.4277L4.90351 25.1529C4.4028 25.0753 4.00958 24.6823 3.9323 24.1816L3.65752 22.4057C3.60511 22.0667 3.40553 21.7682 3.11239 21.5899L1.57711 20.6565C1.14421 20.3933 0.931317 19.8798 1.05153 19.3874L1.47703 17.6417C1.55845 17.3086 1.48828 16.9562 1.28575 16.6796L0.224519 15.2295C-0.0748395 14.8205 -0.0748395 14.2647 0.224519 13.8558L1.28575 12.4059C1.48828 12.1291 1.55845 11.777 1.47703 11.4435L1.05153 9.69789C0.931317 9.20543 1.14421 8.69195 1.57711 8.4287L3.11239 7.49546C3.40553 7.31726 3.60511 7.01865 3.65752 6.67958L3.9323 4.90394C4.00958 4.40304 4.4028 4.01006 4.90351 3.93253L6.67893 3.65782C7.01797 3.60535 7.31673 3.40585 7.49498 3.11265L8.428 1.57731C8.69153 1.1442 9.20497 0.931495 9.69709 1.0516L11.4426 1.47728C11.776 1.55857 12.1281 1.4885 12.4049 1.28587L13.8546 0.224558Z" fill="#A974FF"/>
<path d="M13.8545 0.95415C14.2637 0.654769 14.8192 0.654769 15.2284 0.95415L16.5514 1.92274C16.8283 2.12538 17.1803 2.19544 17.5138 2.11416L19.1068 1.72567C19.5989 1.60556 20.1123 1.81827 20.3759 2.25138L21.2274 3.65258C21.4057 3.94574 21.7042 4.14527 22.0432 4.19771L23.6638 4.44844C24.1645 4.52594 24.5574 4.91895 24.635 5.41985L24.8858 7.04032C24.9382 7.37939 25.1375 7.678 25.4309 7.8562L26.8317 8.70789C27.2649 8.97114 27.4775 9.48462 27.3576 9.97707L26.9691 11.5702C26.8877 11.9037 26.9579 12.2557 27.1604 12.5326L28.129 13.8557C28.4283 14.2647 28.4283 14.8205 28.129 15.2297L27.1604 16.5528C26.9579 16.8297 26.8877 17.1818 26.9691 17.5152L27.3576 19.1083C27.4775 19.6005 27.2649 20.114 26.8317 20.3775L25.4309 21.2292C25.1375 21.4075 24.9382 21.7059 24.8858 22.045L24.635 23.6654C24.5574 24.1664 24.1645 24.5594 23.6638 24.637L22.0432 24.8878C21.7042 24.9402 21.4057 25.1395 21.2274 25.4327L20.3759 26.8339C20.1123 27.2672 19.5989 27.4798 19.1068 27.3598L17.5138 26.9713C17.1803 26.8899 16.8283 26.9601 16.5514 27.1626L15.2284 28.1312C14.8192 28.4306 14.2637 28.4306 13.8545 28.1312L12.5316 27.1626C12.2547 26.9601 11.9026 26.8899 11.5692 26.9713L9.9762 27.3598C9.48408 27.4798 8.97035 27.2672 8.70712 26.8339L7.85553 25.4327C7.67728 25.1395 7.37881 24.9402 7.03977 24.8878L5.41921 24.637C4.91851 24.5594 4.52558 24.1664 4.448 23.6654L4.1972 22.045C4.14479 21.7059 3.94522 21.4075 3.65208 21.2292L2.25123 20.3775C1.81803 20.114 1.60543 19.6005 1.72535 19.1083L2.11384 17.5152C2.19526 17.1818 2.12509 16.8297 1.92256 16.5528L0.954011 15.2297C0.654653 14.8205 0.654653 14.2647 0.954011 13.8557L1.92256 12.5326C2.12509 12.2557 2.19526 11.9037 2.11384 11.5702L1.72535 9.97707C1.60543 9.48462 1.81803 8.97114 2.25123 8.70789L3.65208 7.8562C3.94522 7.678 4.14479 7.37939 4.1972 7.04032L4.448 5.41985C4.52558 4.91895 4.91851 4.52594 5.41921 4.44844L7.03977 4.19771C7.37881 4.14527 7.67728 3.94574 7.85553 3.65258L8.70712 2.25138C8.97035 1.81827 9.48408 1.60556 9.9762 1.72567L11.5692 2.11416C11.9026 2.19544 12.2547 2.12538 12.5316 1.92274L13.8545 0.95415Z" fill="#74DCFF"/>
<path d="M13.8545 0.95415C14.2637 0.654769 14.8192 0.654769 15.2284 0.95415L16.5514 1.92274C16.8283 2.12538 17.1803 2.19544 17.5138 2.11416L19.1068 1.72567C19.5989 1.60556 20.1123 1.81827 20.3759 2.25138L21.2274 3.65258C21.4057 3.94574 21.7042 4.14527 22.0432 4.19771L23.6638 4.44844C24.1645 4.52594 24.5574 4.91895 24.635 5.41985L24.8858 7.04032C24.9382 7.37939 25.1375 7.678 25.4309 7.8562L26.8317 8.70789C27.2649 8.97114 27.4775 9.48462 27.3576 9.97707L26.9691 11.5702C26.8877 11.9037 26.9579 12.2557 27.1604 12.5326L28.129 13.8557C28.4283 14.2647 28.4283 14.8205 28.129 15.2297L27.1604 16.5528C26.9579 16.8297 26.8877 17.1818 26.9691 17.5152L27.3576 19.1083C27.4775 19.6005 27.2649 20.114 26.8317 20.3775L25.4309 21.2292C25.1375 21.4075 24.9382 21.7059 24.8858 22.045L24.635 23.6654C24.5574 24.1664 24.1645 24.5594 23.6638 24.637L22.0432 24.8878C21.7042 24.9402 21.4057 25.1395 21.2274 25.4327L20.3759 26.8339C20.1123 27.2672 19.5989 27.4798 19.1068 27.3598L17.5138 26.9713C17.1803 26.8899 16.8283 26.9601 16.5514 27.1626L15.2284 28.1312C14.8192 28.4306 14.2637 28.4306 13.8545 28.1312L12.5316 27.1626C12.2547 26.9601 11.9026 26.8899 11.5692 26.9713L9.9762 27.3598C9.48408 27.4798 8.97035 27.2672 8.70712 26.8339L7.85553 25.4327C7.67728 25.1395 7.37881 24.9402 7.03977 24.8878L5.41921 24.637C4.91851 24.5594 4.52558 24.1664 4.448 23.6654L4.1972 22.045C4.14479 21.7059 3.94522 21.4075 3.65208 21.2292L2.25123 20.3775C1.81803 20.114 1.60543 19.6005 1.72535 19.1083L2.11384 17.5152C2.19526 17.1818 2.12509 16.8297 1.92256 16.5528L0.954011 15.2297C0.654653 14.8205 0.654653 14.2647 0.954011 13.8557L1.92256 12.5326C2.12509 12.2557 2.19526 11.9037 2.11384 11.5702L1.72535 9.97707C1.60543 9.48462 1.81803 8.97114 2.25123 8.70789L3.65208 7.8562C3.94522 7.678 4.14479 7.37939 4.1972 7.04032L4.448 5.41985C4.52558 4.91895 4.91851 4.52594 5.41921 4.44844L7.03977 4.19771C7.37881 4.14527 7.67728 3.94574 7.85553 3.65258L8.70712 2.25138C8.97035 1.81827 9.48408 1.60556 9.9762 1.72567L11.5692 2.11416C11.9026 2.19544 12.2547 2.12538 12.5316 1.92274L13.8545 0.95415Z" fill="#222222"/>
<path d="M13.8542 1.50139C14.2634 1.20201 14.8189 1.20201 15.2281 1.50139L16.4561 2.40039C16.7329 2.60306 17.085 2.67312 17.4184 2.59184L18.8968 2.23125C19.3892 2.11114 19.9027 2.32385 20.1659 2.75696L20.9565 4.05753C21.1347 4.3507 21.4332 4.55022 21.7723 4.60267L23.2764 4.83539C23.7771 4.91289 24.1701 5.3059 24.2477 5.8068L24.4804 7.3109C24.5328 7.64999 24.7324 7.94857 25.0255 8.12693L26.326 8.91728C26.7592 9.18053 26.9718 9.69431 26.8516 10.1865L26.4912 11.6653C26.4098 11.9987 26.48 12.3508 26.6825 12.6277L27.5815 13.8557C27.8808 14.2647 27.8808 14.8205 27.5815 15.2295L26.6825 16.4578C26.48 16.7347 26.4098 17.0867 26.4912 17.4202L26.8516 18.8987C26.9718 19.3912 26.7592 19.9047 26.326 20.1679L25.0255 20.9586C24.7324 21.1368 24.5328 21.4353 24.4804 21.7744L24.2477 23.2787C24.1701 23.7794 23.7771 24.1724 23.2764 24.25L21.7723 24.4827C21.4332 24.5351 21.1347 24.7347 20.9565 25.0279L20.1659 26.3285C19.9027 26.7614 19.3892 26.9743 18.8968 26.8541L17.4184 26.4934C17.085 26.4123 16.7329 26.4822 16.4561 26.685L15.2281 27.584C14.8189 27.8834 14.2634 27.8834 13.8542 27.584L12.6263 26.685C12.3494 26.4822 11.9974 26.4123 11.664 26.4934L10.1855 26.8541C9.69311 26.9743 9.17967 26.7614 8.91644 26.3285L8.12585 25.0279C7.9476 24.7347 7.64912 24.5351 7.31009 24.4827L5.80589 24.25C5.30519 24.1724 4.91227 23.7794 4.83469 23.2787L4.60195 21.7744C4.54954 21.4353 4.34997 21.1368 4.05683 20.9586L2.75635 20.1679C2.32316 19.9047 2.11055 19.3912 2.23077 18.8987L2.59113 17.4202C2.67256 17.0867 2.60238 16.7347 2.39985 16.4578L1.50089 15.2295C1.20153 14.8205 1.20153 14.2647 1.50089 13.8557L2.39985 12.6277C2.60238 12.3508 2.67256 11.9987 2.59113 11.6653L2.23077 10.1865C2.11055 9.69431 2.32316 9.18053 2.75635 8.91728L4.05683 8.12693C4.34997 7.94857 4.54954 7.64999 4.60195 7.31093L4.83469 5.8068C4.91227 5.3059 5.30519 4.91289 5.80589 4.83539L7.31009 4.60267C7.64912 4.55022 7.9476 4.3507 8.12585 4.05753L8.91644 2.75696C9.17967 2.32385 9.69311 2.11114 10.1855 2.23125L11.664 2.59184C11.9974 2.67312 12.3494 2.60306 12.6263 2.40039L13.8542 1.50139Z" fill="white"/>
<path fill-rule="evenodd" clip-rule="evenodd" d="M15.2281 1.50139C14.8189 1.20201 14.2634 1.20201 13.8542 1.50139L13.2641 1.93344H15.8182L15.2281 1.50139ZM18.9027 2.22986H19.4422C19.7374 2.30036 20.0009 2.48532 20.1659 2.75696L20.6912 3.62075H8.39112L8.9164 2.75696C9.08133 2.48532 9.34486 2.30036 9.64007 2.22986H10.1796C10.1816 2.23033 10.1834 2.23077 10.1855 2.23125L11.6639 2.59184C11.9973 2.67312 12.3494 2.60306 12.6263 2.40042L12.8593 2.22986H16.223L16.456 2.40042C16.7329 2.60306 17.0849 2.67312 17.4184 2.59184L18.8968 2.23125C18.8989 2.23077 18.9006 2.23033 18.9027 2.22986ZM8.21109 3.91717L8.12581 4.05753C7.94756 4.3507 7.64909 4.55022 7.31005 4.6027L5.80586 4.83539C5.48933 4.8844 5.21573 5.05941 5.03778 5.30806H24.0445C23.8665 5.05941 23.5929 4.8844 23.2764 4.83539L21.7722 4.6027C21.4332 4.55022 21.1347 4.3507 20.9565 4.05753L20.8712 3.91717H8.21109ZM24.1976 5.60448H4.88469C4.86219 5.66945 4.84531 5.73709 4.83465 5.80679L4.65077 6.99538H24.4315L24.2476 5.80679C24.237 5.73709 24.2201 5.66945 24.1976 5.60448ZM24.4774 7.2918H4.60488L4.60192 7.31093C4.54951 7.64999 4.34994 7.94857 4.0568 8.12666L3.14243 8.68278H25.9398L25.0255 8.12666C24.7323 7.94857 24.5328 7.64999 24.4804 7.31093L24.4774 7.2918ZM26.4174 8.9792H2.66483C2.29381 9.25578 2.1194 9.73017 2.23074 10.1865L2.27545 10.3701H26.8068L26.8515 10.1865C26.9629 9.73017 26.7885 9.25578 26.4174 8.9792ZM26.7346 10.6665H2.3477L2.5911 11.6653C2.62278 11.795 2.63166 11.9274 2.61834 12.0574H26.4639C26.4506 11.9274 26.4595 11.795 26.4912 11.6653L26.7346 10.6665ZM26.5338 12.3538H2.54845C2.51174 12.4504 2.462 12.5425 2.39982 12.6277L1.58228 13.7447H27.5L26.6825 12.6277C26.6203 12.5425 26.5705 12.4504 26.5338 12.3538ZM27.6922 14.0411H1.39011C1.20771 14.422 1.24472 14.8795 1.50085 15.2295L1.6489 15.432H27.4334L27.5814 15.2295C27.8375 14.8795 27.8746 14.422 27.6922 14.0411ZM27.2163 15.7285H1.86595L2.39982 16.4578C2.54195 16.6521 2.61893 16.8833 2.62396 17.1193H26.4583C26.4633 16.8833 26.5403 16.6521 26.6825 16.4578L27.2163 15.7285ZM26.49 17.4158H2.59228C2.59199 17.4172 2.59169 17.4187 2.5911 17.4202L2.25324 18.8067H26.829L26.4912 17.4202C26.4906 17.4187 26.4903 17.4172 26.49 17.4158ZM26.8826 19.1031H2.19965C2.1733 19.528 2.38293 19.9411 2.75632 20.1679L3.29256 20.494H25.7897L26.326 20.1679C26.6993 19.9411 26.909 19.528 26.8826 19.1031ZM25.3023 20.7904H3.77994L4.0568 20.9586C4.34994 21.1369 4.54951 21.4354 4.60192 21.7744L4.66469 22.1813H24.4176L24.4804 21.7744C24.5328 21.4354 24.7323 21.1369 25.0255 20.9586L25.3023 20.7904ZM24.3717 22.4777H4.71058L4.83465 23.2787C4.8693 23.5032 4.9676 23.706 5.11032 23.8686H23.9719C24.1147 23.706 24.213 23.5032 24.2476 23.2787L24.3717 22.4777ZM23.5675 24.165H5.5148C5.606 24.2053 5.70371 24.2343 5.80586 24.25L7.31005 24.4828C7.64909 24.5352 7.94756 24.7348 8.12581 25.0279L8.44679 25.5559H20.6355L20.9565 25.0279C21.1347 24.7348 21.4332 24.5352 21.7722 24.4828L23.2764 24.25C23.3786 24.2343 23.4763 24.2053 23.5675 24.165ZM20.4555 25.8523H8.62681L8.9164 26.3285C9.17964 26.7614 9.69308 26.9743 10.1855 26.8541L11.6639 26.4934C11.9973 26.4123 12.3494 26.4822 12.6263 26.685L13.3887 27.2432H15.6936L16.456 26.685C16.7329 26.4822 17.0849 26.4123 17.4184 26.4934L18.8968 26.8541C19.3892 26.9743 19.9026 26.7614 20.1659 26.3285L20.4555 25.8523ZM15.2885 27.5396H13.7935L13.8542 27.5841C14.2634 27.8834 14.8189 27.8834 15.2281 27.5841L15.2885 27.5396Z" fill="#74C3FF"/>
<path fill-rule="evenodd" clip-rule="evenodd" d="M22.1239 10.8439L12.5189 20.4499L7.40527 15.3358L9.17863 13.5623L12.5189 16.9026L20.3505 9.07043L22.1239 10.8439Z" fill="#222222" stroke="#222222" stroke-width="0.878151" stroke-linecap="square"/>
<path fill-rule="evenodd" clip-rule="evenodd" d="M21.6678 10.4107L12.0629 20.0167L6.94922 14.9026L8.72256 13.1291L12.0629 16.4694L19.8945 8.63721L21.6678 10.4107Z" fill="white" stroke="#222222" stroke-width="0.878151" stroke-linecap="square"/>
</svg>
