<svg width="39" height="39" viewBox="0 0 39 39" fill="none" xmlns="http://www.w3.org/2000/svg">
<circle cx="19.2261" cy="19.2261" r="19.2261" fill="white"/>
<path d="M19.1094 5.86675C19.5184 5.56737 20.0741 5.56737 20.4831 5.86675L21.9328 6.92796C22.2096 7.13058 22.5618 7.20064 22.8951 7.11936L24.6406 6.69372C25.1329 6.57362 25.6464 6.78631 25.9098 7.21938L26.8428 8.75459C27.021 9.04775 27.3198 9.24723 27.6588 9.2997L29.4342 9.57439C29.9349 9.65188 30.3281 10.0449 30.4054 10.5457L30.6802 12.3211C30.7326 12.6601 30.9322 12.9589 31.2253 13.1371L32.7606 14.0701C33.1935 14.3336 33.4064 14.8471 33.2862 15.3392L32.8607 17.0847C32.7792 17.4181 32.8494 17.7702 33.0519 18.047L34.1132 19.4967C34.4125 19.9059 34.4125 20.4614 34.1132 20.8706L33.0519 22.3203C32.8494 22.5971 32.7792 22.9492 32.8607 23.2826L33.2862 25.0278C33.4064 25.5202 33.1935 26.0336 32.7606 26.2972L31.2253 27.2302C30.9322 27.4084 30.7326 27.7069 30.6802 28.0462L30.4054 29.8216C30.3281 30.3223 29.9349 30.7152 29.4342 30.7928L27.6588 31.0676C27.3198 31.12 27.021 31.3196 26.8428 31.6127L25.9098 33.148C25.6464 33.5809 25.1329 33.7938 24.6406 33.6735L22.8951 33.248C22.5618 33.1666 22.2096 33.2368 21.9328 33.4393L20.4831 34.5005C20.0741 34.7999 19.5184 34.7999 19.1094 34.5005L17.6597 33.4393C17.3829 33.2368 17.0307 33.1666 16.6974 33.248L14.952 33.6735C14.4596 33.7938 13.9461 33.5809 13.6829 33.148L12.7497 31.6127C12.5714 31.3196 12.2729 31.12 11.9338 31.0676L10.1584 30.7928C9.65748 30.7152 9.26453 30.3223 9.18704 29.8216L8.91232 28.0462C8.85988 27.7072 8.66037 27.4084 8.36723 27.2302L6.832 26.2972C6.39893 26.0336 6.18627 25.5202 6.30634 25.0278L6.73201 23.2826C6.81329 22.9492 6.74323 22.5971 6.54058 22.3203L5.47937 20.8706C5.18001 20.4614 5.18001 19.9059 5.47937 19.4967L6.54058 18.047C6.74323 17.7702 6.81329 17.4181 6.73201 17.0847L6.30634 15.3392C6.18627 14.8471 6.39893 14.3336 6.832 14.0701L8.36723 13.1371C8.66037 12.9589 8.85988 12.6601 8.91232 12.3211L9.18704 10.5457C9.26453 10.0449 9.65748 9.65188 10.1583 9.57439L11.9338 9.2997C12.2729 9.24723 12.5714 9.04775 12.7496 8.75459L13.6829 7.21938C13.9461 6.78631 14.4596 6.57362 14.952 6.69372L16.6974 7.11936C17.0307 7.20064 17.3829 7.13058 17.6597 6.92796L19.1094 5.86675Z" fill="#222222"/>
<path d="M17.8335 4.20232C18.2424 3.90294 18.7981 3.90294 19.2071 4.20232L20.6568 5.26353C20.9336 5.46615 21.2858 5.53621 21.6191 5.45493L23.3646 5.02929C23.857 4.90919 24.3704 5.12188 24.6337 5.55495L25.5669 7.09016C25.7451 7.38332 26.0438 7.5828 26.3829 7.63527L28.1583 7.90996C28.659 7.98748 29.0522 8.38043 29.1295 8.88128L29.4042 10.6568C29.4566 10.9958 29.6562 11.2944 29.9493 11.4726L31.4846 12.4057C31.9175 12.669 32.1304 13.1824 32.0102 13.6748L31.5847 15.4203C31.5033 15.7537 31.5734 16.1058 31.776 16.3826L32.8372 17.8323C33.1365 18.2412 33.1365 18.797 32.8372 19.2059L31.776 20.6559C31.5734 20.9324 31.5033 21.2848 31.5847 21.6179L32.0102 23.3634C32.1304 23.8558 31.9175 24.3692 31.4846 24.6325L29.9493 25.5658C29.6562 25.744 29.4566 26.0425 29.4042 26.3815L29.1295 28.1572C29.0522 28.6579 28.659 29.0508 28.1583 29.1284L26.3829 29.4032C26.0438 29.4556 25.7451 29.6552 25.5669 29.9483L24.6337 31.4836C24.3704 31.9165 23.857 32.1294 23.3646 32.0091L21.6191 31.5834C21.2858 31.5022 20.9336 31.5724 20.6568 31.7749L19.2071 32.8361C18.7981 33.1355 18.2424 33.1355 17.8335 32.8361L16.3838 31.7749C16.1069 31.5724 15.7547 31.5022 15.4215 31.5834L13.676 32.0091C13.1836 32.1294 12.6702 31.9165 12.4069 31.4836L11.4737 29.9483C11.2955 29.6552 10.9969 29.4556 10.6579 29.4032L8.88239 29.1284C8.38151 29.0508 7.98856 28.6579 7.91107 28.1572L7.63635 26.3815C7.58391 26.0425 7.3844 25.744 7.09126 25.5658L5.55603 24.6325C5.12296 24.3692 4.9103 23.8558 5.03037 23.3634L5.45604 21.6179C5.53732 21.2848 5.46726 20.9324 5.26461 20.6559L4.2034 19.2059C3.90404 18.797 3.90404 18.2412 4.2034 17.8323L5.26461 16.3826C5.46726 16.1058 5.53732 15.7537 5.45604 15.4203L5.03037 13.6748C4.9103 13.1824 5.12296 12.669 5.55603 12.4057L7.09126 11.4726C7.3844 11.2944 7.58391 10.9958 7.63635 10.6568L7.91107 8.88128C7.98856 8.38043 8.38151 7.98748 8.88236 7.90996L10.6579 7.63527C10.9969 7.5828 11.2955 7.38332 11.4737 7.09016L12.4069 5.55495C12.6702 5.12188 13.1836 4.90919 13.676 5.02929L15.4215 5.45493C15.7547 5.53621 16.1069 5.46615 16.3838 5.26353L17.8335 4.20232Z" fill="url(#paint0_linear_1_3052)"/>
<path fill-rule="evenodd" clip-rule="evenodd" d="M12.0921 30.9663L11.4734 29.9483C11.2951 29.6552 10.9966 29.4556 10.6576 29.4032L8.88207 29.1284C8.3812 29.0511 7.98825 28.6579 7.91076 28.1572L7.8537 27.7886L28.028 7.88989L28.1579 7.91003C28.6586 7.98752 29.0519 8.38047 29.1291 8.88134L29.4039 10.6568C29.4563 10.9959 29.6559 11.2944 29.949 11.4726L30.967 12.0913L12.0921 30.9663Z" fill="white"/>
<path fill-rule="evenodd" clip-rule="evenodd" d="M16.3472 31.7496C16.0762 31.5666 15.7399 31.5056 15.4209 31.5835L13.6755 32.0092C13.39 32.0788 13.0975 32.0365 12.8508 31.9044L31.9836 13.033C32.0508 13.2355 32.0627 13.4573 32.0096 13.6749L31.5842 15.4204C31.5063 15.7393 31.567 16.0757 31.75 16.3466L16.3472 31.7496Z" fill="white"/>
<path d="M19.173 4.97791L20.496 5.94641C20.7864 6.15898 21.1558 6.23247 21.5055 6.14719L23.0984 5.75874C23.5666 5.64454 24.0549 5.8468 24.3053 6.25864L25.157 7.65972C25.3439 7.96724 25.6571 8.1765 26.0128 8.23154L27.6331 8.48224C28.1095 8.55591 28.4832 8.92962 28.5569 9.40592L28.8074 11.0263C28.8625 11.3819 29.0718 11.6951 29.3795 11.8821L30.7803 12.7338C31.1922 12.984 31.3944 13.4723 31.2804 13.9407L30.8919 15.5337C30.8066 15.8831 30.8801 16.2526 31.0927 16.5431L32.0612 17.8661C32.3458 18.2548 32.3458 18.7834 32.0612 19.1725L31.0927 20.4954C30.8801 20.7859 30.8066 21.1551 30.8919 21.5048L31.2804 23.0978C31.3944 23.5662 31.1922 24.0545 30.7803 24.3047L29.3795 25.1563C29.0718 25.3434 28.8625 25.6567 28.8074 26.0123L28.5569 27.6325C28.4832 28.109 28.1095 28.4826 27.6331 28.5564L26.0128 28.8069C25.6571 28.8619 25.3439 29.0713 25.157 29.3789L24.3053 30.7798C24.0549 31.1916 23.5666 31.3939 23.0984 31.2799L21.5055 30.8914C21.1558 30.8061 20.7864 30.8795 20.496 31.0921L19.173 32.0607C18.784 32.3452 18.2556 32.3452 17.8666 32.0607L16.5436 31.0921C16.2532 30.8795 15.8838 30.8061 15.5341 30.8914L13.9412 31.2799C13.4729 31.3939 12.9847 31.1916 12.7343 30.7798L11.8826 29.3789C11.6957 29.0713 11.3825 28.8619 11.0268 28.8069L9.40648 28.5564C8.93018 28.4826 8.55647 28.109 8.48278 27.6325L8.23207 26.0123C8.17706 25.6567 7.96777 25.3434 7.66025 25.1563L6.2592 24.3047C5.84736 24.0545 5.6451 23.5662 5.7593 23.0978L6.14775 21.5048C6.23303 21.1551 6.15954 20.7859 5.94694 20.4954L4.97847 19.1725C4.6938 18.7834 4.69377 18.2548 4.97847 17.8661L5.94694 16.5431C6.15954 16.2526 6.23303 15.8831 6.14775 15.5337L5.7593 13.9407C5.6451 13.4723 5.84736 12.984 6.2592 12.7338L7.66025 11.8821C7.96777 11.6951 8.17706 11.3819 8.23207 11.0263L8.48278 9.40592C8.55647 8.92962 8.93018 8.55591 9.40648 8.48224L11.0268 8.23154C11.3825 8.1765 11.6957 7.96724 11.8826 7.65972L12.7343 6.25864C12.9847 5.8468 13.4729 5.64454 13.9412 5.75874L15.5341 6.14719C15.8838 6.23247 16.2532 6.15898 16.5436 5.94641L17.8666 4.97791C18.2556 4.69324 18.784 4.69324 19.173 4.97791Z" stroke="black" stroke-width="0.113997"/>
<path d="M19.1727 5.52505L20.4007 6.424C20.6911 6.63657 21.0605 6.71006 21.4101 6.62478L22.8887 6.26423C23.3569 6.15002 23.8452 6.35228 24.0956 6.76413L24.8861 8.06458C25.073 8.37208 25.3863 8.58136 25.7419 8.63641L27.2458 8.86908C27.7222 8.94278 28.0959 9.31648 28.1696 9.79279L28.4023 11.2968C28.4574 11.6524 28.6664 11.9656 28.9741 12.1526L30.2746 12.9431C30.6864 13.1933 30.8887 13.6816 30.7744 14.15L30.414 15.6284C30.3287 15.9781 30.4022 16.3477 30.6148 16.6381L31.5137 17.8661C31.7983 18.2548 31.7983 18.7834 31.5137 19.1724L30.6148 20.4004C30.4022 20.6908 30.3287 21.0601 30.414 21.4097L30.7744 22.8885C30.8887 23.3566 30.6864 23.8449 30.2746 24.0953L28.9741 24.8859C28.6664 25.0728 28.4574 25.386 28.4023 25.7416L28.1696 27.2455C28.0959 27.7219 27.7222 28.0956 27.2458 28.1694L25.7419 28.4021C25.3863 28.4569 25.073 28.6662 24.8861 28.9738L24.0956 30.2743C23.8452 30.6862 23.3569 30.8884 22.8887 30.7741L21.4101 30.4135C21.0605 30.3282 20.6911 30.4019 20.4007 30.6145L19.1727 31.5132C18.7837 31.798 18.2553 31.798 17.8663 31.5132L16.6383 30.6145C16.3479 30.4019 15.9785 30.3282 15.6288 30.4135L14.1503 30.7741C13.682 30.8884 13.1938 30.6862 12.9434 30.2743L12.1529 28.9738C11.9659 28.6662 11.6527 28.4569 11.2971 28.4021L9.79309 28.1694C9.31679 28.0956 8.94308 27.7219 8.86939 27.2455L8.63671 25.7416C8.58167 25.386 8.37239 25.0728 8.06489 24.8859L6.76443 24.0953C6.35259 23.8449 6.15032 23.3566 6.26453 22.8885L6.62509 21.4097C6.71036 21.0601 6.63687 20.6908 6.4243 20.4004L5.52535 19.1724C5.24065 18.7834 5.24065 18.2548 5.52535 17.8661L6.4243 16.6381C6.63687 16.3477 6.71036 15.9781 6.62509 15.6284L6.26453 14.15C6.15032 13.6816 6.35259 13.1933 6.76443 12.9431L8.06489 12.1526C8.37239 11.9656 8.58167 11.6524 8.63671 11.2968L8.86939 9.79279C8.94308 9.31648 9.31679 8.94278 9.79309 8.86908L11.2971 8.63641C11.6527 8.58136 11.9659 8.37208 12.1529 8.06458L12.9434 6.76413C13.1938 6.35228 13.682 6.15002 14.1503 6.26423L15.6288 6.62478C15.9785 6.71006 16.3479 6.63657 16.6383 6.424L17.8663 5.52505C18.2553 5.24035 18.7837 5.24035 19.1727 5.52505Z" stroke="black" stroke-width="0.113997"/>
<path fill-rule="evenodd" clip-rule="evenodd" d="M26.1025 14.8207L16.4976 24.4258L11.3841 19.3122L13.1575 17.5389L16.4976 20.8788L24.3293 13.0474L26.1025 14.8207Z" fill="#222222" stroke="#222222" stroke-width="0.136797" stroke-linecap="square"/>
<path fill-rule="evenodd" clip-rule="evenodd" d="M25.6455 14.3875L16.0405 23.9926L10.9269 18.879L12.7003 17.1056L16.0405 20.4456L23.8721 12.6141L25.6455 14.3875Z" fill="white" stroke="#222222" stroke-width="0.136797" stroke-linecap="square"/>
<defs>
<linearGradient id="paint0_linear_1_3052" x1="8.33875" y1="8.33773" x2="27.9742" y2="28.7003" gradientUnits="userSpaceOnUse">
<stop stop-color="#FFD401"/>
<stop offset="1" stop-color="#C97D24" stop-opacity="0.84"/>
</linearGradient>
</defs>
</svg>
